<mxfile host="app.diagrams.net" modified="2024-03-07T15:20:02.271Z" agent="Mozilla/5.0 (Windows NT 10.0; Win64; x64) AppleWebKit/537.36 (KHTML, like Gecko) Chrome/122.0.0.0 Safari/537.36" etag="-sQ-Sqp9NdTYy78iMTfV" version="24.0.2" type="github">
  <diagram name="第 1 页" id="got8Y6Uiw6UoeCw92j-6">
    <mxGraphModel dx="581" dy="313" grid="1" gridSize="10" guides="1" tooltips="1" connect="1" arrows="0" fold="1" page="1" pageScale="1" pageWidth="827" pageHeight="1169" math="1" shadow="0">
      <root>
        <mxCell id="0" />
        <mxCell id="1" parent="0" />
        <mxCell id="yd2iljssM0_-3lc8b-zZ-54" value="" style="rounded=1;whiteSpace=wrap;html=1;dashed=1;" vertex="1" parent="1">
          <mxGeometry x="170" y="270" width="110" height="60" as="geometry" />
        </mxCell>
        <mxCell id="yd2iljssM0_-3lc8b-zZ-53" value="" style="rounded=1;whiteSpace=wrap;html=1;dashed=1;" vertex="1" parent="1">
          <mxGeometry x="170" y="195" width="110" height="60" as="geometry" />
        </mxCell>
        <mxCell id="2WpL6Ux3U9TwYnVOZWAu-7" value="" style="rounded=1;whiteSpace=wrap;html=1;dashed=1;" parent="1" vertex="1">
          <mxGeometry x="170" y="120" width="110" height="60" as="geometry" />
        </mxCell>
        <mxCell id="yd2iljssM0_-3lc8b-zZ-55" style="edgeStyle=orthogonalEdgeStyle;rounded=0;orthogonalLoop=1;jettySize=auto;html=1;exitX=1;exitY=0.5;exitDx=0;exitDy=0;entryX=0;entryY=0.5;entryDx=0;entryDy=0;" edge="1" parent="1" source="2WpL6Ux3U9TwYnVOZWAu-4" target="2WpL6Ux3U9TwYnVOZWAu-7">
          <mxGeometry relative="1" as="geometry" />
        </mxCell>
        <mxCell id="yd2iljssM0_-3lc8b-zZ-56" style="edgeStyle=orthogonalEdgeStyle;rounded=0;orthogonalLoop=1;jettySize=auto;html=1;exitX=1;exitY=0.5;exitDx=0;exitDy=0;entryX=0;entryY=0.5;entryDx=0;entryDy=0;" edge="1" parent="1" source="2WpL6Ux3U9TwYnVOZWAu-4" target="yd2iljssM0_-3lc8b-zZ-53">
          <mxGeometry relative="1" as="geometry" />
        </mxCell>
        <mxCell id="yd2iljssM0_-3lc8b-zZ-57" style="edgeStyle=orthogonalEdgeStyle;rounded=0;orthogonalLoop=1;jettySize=auto;html=1;exitX=1;exitY=0.5;exitDx=0;exitDy=0;entryX=0;entryY=0.5;entryDx=0;entryDy=0;" edge="1" parent="1" source="2WpL6Ux3U9TwYnVOZWAu-4" target="yd2iljssM0_-3lc8b-zZ-54">
          <mxGeometry relative="1" as="geometry" />
        </mxCell>
        <mxCell id="2WpL6Ux3U9TwYnVOZWAu-4" value="" style="shape=image;verticalLabelPosition=bottom;verticalAlign=top;imageAspect=0;aspect=fixed;image=data:image/png,iVBORw0KGgoAAAANSUhEUgAAAMgAAADICAYAAACtWK6eAAAAAXNSR0IArs4c6QAAFdpJREFUeF7tnQ2UXVV1x39hJh+TzJgwk++kDWiFWsDEtioGETECpRhDkW+ixY9ii1oLVLtWAQWVtIqEFj9ZIrZFEq2WWlBAgYKCFkUBC7LIQi2BfCfkeyaZyUzStfPum7z77rvvnnvvmfPOnbv3Wm/NJLPPPvv89/m/c+655+wzBhVFQBGIRWCMYqMIKALxCChBtHcoAk0QUIJo91AElCDaBxSBbAjoCJINNy1VEgSUICUJtDYzGwJKkGy4aamSIKAEKUmgtZnZEFCCZMNNS5UEASVISQKtzcyGgBIkG25aqiQIKEFKEmhtZjYElCDZcNNSJUFACVKSQGszsyGgBMmGm5YqCQJKEPNA/y7wgrl6YTV/D/h1Yb237LgSJBnQPwG+BBwR/PwgsD+5WOE0DgO+ArwH2AX8oRIFlCDJ/fizwBU1ancAFwADyUULozEOWAmcVePxPcCfFqYFI+SoEiQZ2HqCSIm7gPOBvuTi3mtMDMjx9jpPfwy80XvvR9hBJUgywDLFkm/TepH/k5FkR7IJbzVeBnwDOL2Bh0uAO7313JFjShAzoM8B/r2B6n0BSV4yM+OVVndAjlMaeHUu8C2vvG2RM0oQc+DjSPJgQJKN5qZarjk9IMfJSo7msVCCpOurcSR5OCDJ2nTmWqI9OyDHiUqOZPyVIMkY1WvEkeTR4MF9dXqTzkrMC8hxvJLDDHMliBlOpiT5eUCS3zQxK+8b3gTMBGYFn/rfe4Ly/cCLwQtK+dnoY7pI8IqAHH+s5DAPuhLEHCtTkjwZTLeeDQpMCgghU5qTgIXZq2xYUur5DvBt4Bcxto8OyLFAyZEOfSVIOrxMSfJ00FnlIVi2qLiSdQFZbq0hiyzl/gQ4RsmRPgxKkPSYmZIkv+V8FnqB24H/Ab6m5MgGphIkG25WSHLYFGibAocdDvJ79d9jOgPz++FAL+zvgwN9sL+38rP/qcrPHKLvOQzBU4IYAtVE7b3APwHVbh2rOv41MOF4mPCGyiePDPwK+n8J+1ZB9XdDe0oOQ6BETQmSAqw6VdmndDVwapyJtpnQ8WaY8LrKp21G9sqSSg48A3segb3ykUlVc/k6cBmwJUmx7H9XgmTrAR8HPgbIkm1Exr4COt8BnWdXpk+uZd/z0Hsn7P4mDG2KrV22tP8NIA/0KjEIKEHSdQ05I3EdIBsYIzJ+PnSeW/n4IEKOXd9IJMp/Ah8A1vvgs28+KEHMI/JXATkiY0LHSTDhBGifXfm0yaf6qs/cvlXNA/tgaHNlBBlcDftWNyWKvNj8c0C2uKvUIKAEMesO/wq8y0y1ojXpTJh8KYw9Mk0pO7q7VsDOm2FQ3oqkE2njbemKjG5tJUhyfFOTo9bk5A/BlL9OrsSWxqa/gD0P5bJ2DXBtLgujqLASpHkw5QH23Xnj3dYNc3+a10py+dWvTNYx1BBKf85Qd1SrKUHiwyv7m+RUnRXpugi65bt5hGT7DbDjy1aNfxi4yarFAhpTgjQO2gPAWwzjKRMaeR+yChgEXg6cHbxnGF9rY8bXYcLrDa2mUOt7ADb/ZcMCfwfcCzwHTAl8E82lhuavBJYZ6o5KNSVINKz/UZfd46DGyy6Gnf8SUZbds422j4uiLAkLebqqpToWwXS73/IHt5ysWwyD0YxdklTimzG9Vs7Sr6j928S3Qt/9DbVl9c6y18XhkhIkHKvlwTd/6H97Pg27boMB2aN7SH4FHJsQ6otrNwq2TYe5lhdS+5+EDXKEKyyy9UXelDeTG4MXhQd1Jp0BQ9tgr+z7Dctu4LRgR3BxerYlT5Ugh4CUhHCRB9Puq2DiabAmekDVdI4uU6+jqtXMeQDaLW6Al7flL10V6Q0yqsWdDakqvw4YXjqQt/+z7oKNS6H/8Yg9oY2QRMhSKlGCVMIt+6rkXHlIpnwYJn8Q+u6BzdGlWtO0OLLv6aKq4ek3Q4fp041BV9z6icroVieSsWRbQnHRCWVjmfccDG2ETe+vbICsE5lmyXSrVKIEqYRbEsG9rTbyXUuhW3ZcSR7O20A6Yp38WXA4KanDhAhi+72IfOPvjS4hTzPYiBghyKw7YNxxsO83sOmShs81pXuRqASB99c/hMoD6zTJxhvI4IuwNvqtLytEn0liR7C6NTzFmrkSxsc91hsYq1fZeQts+3SkoIyISU87oSkW7TBPnrHaKrb6fgCbZYdWWGQ1TI4Nl2bfVtkJMieYWg1vCBkzFmZIJ54f7hkbzq6cv6gR2Q0rr+aa5cMKPaSPGQ+/8ziMkUy4lkS+7ddFt07KqPXOhCpCD+mdZ4EsRtTK9ptgR/R1oXx1XGrJfe/NlJ0g8iLsQ7VRipsCxXSW/wXqqDRsLbrMexJMv8V+n2hAXqlEnntCS7k1NUeWeaf+M0xqkKpaRhEZTerkHYAk8R71UmaCvBqQ9ZpgUlEZNWT0kFGkXgZWwab3NDxfISOIfPd+P5h6xL4otP38UfUxhrzyZ9kqI283xDd5aSm+RV4Uth8Bs74Nh02Otlver2w4v7IzuEYkvdFrRz07Sn6iUN4VyFLtsMhzhzx/xEnMapZRP5EXjYfLe+kRkpeuhN2Nsgcn1dcGM26BCU3yuG9fDjtqnskCk81eRCbVWpi/l3UEkSRqMnpISpyD0nUBdEdXqiKBbPJtHRt0OV3Y848j3CeGYOO7jY7bhhzpWQad0ReNIR0ZRdYvgf3htyDfq1/5G+EWtsR8WQkipwL/voq4HIud9Z3KYScT2fpxkDMXJtJ5PvR80kQzv87gWti2rOEzQ8S4vNXvPM98K/626xputZG8X/k21+dv9ohaKCNBpgJPBak/D4IrHaXnU+lwHlwDu+9ouMozPCJ1XQxjZdbvWGT7ye6VFf/qRYghO4tlyjdGrs4xlIFnK6NI3eVzXwXeZ2iikGplJIik6QmtJU3/KnRIttwMcmAA+p8IFxy/AGRJt9UiI4oQuVby7Cbe8lHolRPsh0Syosh0dWer2zpS9ZeRIHJr0uIqoOOOqUyvVJIR6LsPNkffgMgTjOQFHpVSNoL8ARDaZTTlcphcuh1G2fvy2rdWkkDUiNyMe0l2i36XLBtB5MFcHtCHZc6D0D7X7yD55N22z8BOocQheR6Qu9WHfPLTli9lI8gjwAlV8GQb+7TP24KyHHZizp/IVvjo+/ZRAEnZCCIpnztGQdx8a4IcOU65DuhbExr7UyaCyCUy1UttihGd4ngpxwXq71kvjvdNPC0TQSSA/zUqouZfIzYAxxmcQfHP8wSPykQQ2VD40cJFqDgOnwHcXRx3zTwtE0GC84FmwKhWJgRGXUbGMhEkU8S1ULkRUIKUO/7aen0G0T6gCGRHQEeQ7NhpyRIgoAQpQZC1idkR8JUgC4Kct68Kctz+ESAbtyUDlCRKkAQ196VotqxgjWBu9RSejG7VNP3pFEDiewwg8ZWPxPdnQXwfA+oOErgHL02DXHknF0tKh5Zs5M0kzS5SJYib6Jn2p1DKoRjXegE5qNzSLSymDXIDL/ybQT6nWl/kkjFJ6Sb5b5uJEsRNBE36k4wKMkMwlUeBnLfKm1YV1TNpUHbr6UrenONcgdxAHn/hcWVE0ilWunhk0U7qT2sBw5P/oerlcod5WRzKWyapQXntm5Y/C5B7OUIiKTo7Tob2ORy8B0MyG+4WLbmmJizN7ukQzQhB5DIblXwISF7gOmnWnxp+SU08FcYeXblYaO8j0P905WcDMc2mn69RKRpktaImxiRTrTyQhaTnH6BT7mlqIJveB3t+GPmDzGsvj6knEhzJZK6SHQFJmJ2CIHLPoySxC0ncjVt7/ruSYb6BSNYyuf3LmfgwgkhKstAFYlNvhEmhXOtRPDZcCP0RWh1MIPDbBugpQSx3qZQEkazGkslyWJLuSZFcXGsXRZyWe0qGD7xZblJDcz4QRLKQL6x6N2kxTJV7nhIk5mTbmTFb2pUgSYCm/HsKgkhC0+215qdcAZMb36kY8kIuJZXLSWtkL3A4ID+diA8EkSzpndXWprlgRvI0DTwTwinuZJsSxHJ3SkGQyOVEcx+GtpnJDu1bBeuiMwlZ0ZKVLSfSaoLIi6JQF5/zI2ifZdb2LZdB73dDupKd9rwGpZUgZpAaa6UgiOSM+WLV8NgjYbbh6fX9u+BFyZEfFqeXiraaIG8GHqxtfyqCfAR6wzmtJA2mpMOsFyWIcdc3U0xBkBD2slqVZgVxtdzAEhZZrnd27kQJYtYfVKsOASWImy6hI4gbnK3XogSxDmlDg0oQNzhbr0UJYh1SJYgbSN3UogRxg7OOIG5wtl6LEsQ6pDqCuIHUTS1KEDc46wjiBmfrtShBrEOqI4gbSN3UogRxg7OOIG5wtl6LEsQ6pDqCuIHUTS1KEDc46wjiBmfrtShBrEOqI4gbSN3UogRxg7OOIG5wtl6LEsQ6pDqCuIHUTS1KEDc46wjiBmfrtShBrEOqI4gbSN3UogRxg7OOIG5wtl6LEsQ6pDqCuIHUTS1KEDc46wjiBmfrtShBrEOqI4gbSN3UogRxg7OOIG5wtl6LEsQ6pDqCuIHUTS1KEDc46wjiBmfrtShBrEOqI4gbSN3UogRxg7OOIG5wtl6LEsQ6pDqCuIHUTS1KEDc46wjiBmfrtShBrEOqI4gbSN3UogRxg7OOIG5wtl6LEsQ6pDqCuIHUTS1KEDc46wjiBmfrtShBrEOqI4gbSN3UogRxg7OOIG5wtl6LEsQ6pDqCuIHUTS1KEDc46wjiBmfrtShBrEOqI4gbSN3UogRxg7OOIG5wtl6LEsQ6pDqCuIHUTS1KEDc46wjiBmfrtShBrEPa0KBcE/+L2r+kuif9cui9K2RX/vX2BjXpPemW45mCIJcDN1SrH3s0zP6umTMH9sILx0V0rwCWm1nIr9Xqe9LbgT5gbLUp02+FjhPNGrbhbOj/ZUj3KuA6JYgZfnm0UhDkTcAPa+ua+zC0zUyufWAVrH9bRO8k4EfJpe1otJog0opHgBOqzek8B3qWJTdu4FlYvziiJ//T6PtJR5BkSFNppCBIN/BSrfHua6DrouTqdt0OW6+J6PUAW5NL29HwgSBfAC6tbc70W6BDvieayKZLYM+DEYWXA/+nI4idztHMSgqCiJkngfmhUeSn0CbUiZGhrbDm9ZE/ynxhwci37lANPhBkEXB/baPHTICpy2HiKY2h2HIF9N4Z+dsKIO57SUcQy70qJUFk6vvJehe6r4WuC6OObb8JdnyuocMfAT5ruSlNzflAEHFQHrouq/d04qnQ8RZonwsH+qD/Sdj9LRjaHGnTDmAO0BvTWiWI5V6VkiBS+7PA0ZEYnw7j58O4Yyvx7f8Z7Gn8hPEQcLLlZiSa84Ug4ugq4KhEjxsrLAGiY8ohXSVIRmDjimUgyELgxzncGA8M5CifqahPBJEGyFRLplxpRAbplQkFlCBpEDXQzUAQsXoBIFPhNPJ8sHT/VJpCtnR9I4i0652APLh3JTTyeuBqoN8ADCWIAUhpVDISRKqQkUCeR+R5opnIaCHT7i+m8cu2ro8EkTa+GjgVeGPwkaU9kUcBmYvKuvq9KcBQgqQAy0Q1B0Gq5k+ria/EWd6J7a2J7z1A+C2XiWOWdXwlSH0zXxMs327P2H4lSEbg4opZIEitaSGHkES+/LySohAkL2hKkLwI1pW3TBDL3tkzpwSxh2WpLClBRle4dQSxHE8liGVAW2xOCWI5AEoQy4C22JwSxHIAlCCWAW2xOSWI5QAoQSwD2mJzShDLAVCCWAa0xeaUIJYDoASxDGiLzSlBLAdACWIZ0BabU4JYDoASxDKgLTYn+7q+X+vD7Lth7Ctb7FWBq9+2DHZ+LdQA2cou20VGlZTlTfoMYENt5Lo/Bl2yb1glNQKSbWTDeTDwTKionPRL2qGbuq5WFygLQQRn2Rkqu4SHZdpNMPH0VoegePVvXAoyxaqTdwG3Fa81zT0uE0GuBD5VD8ekxdB5HkyIJggYbbHO1Z792ytHYXd8Cfb9OmJKDjW9FtiSqxIPC5eJIAK/TApeZSsO854ztxTzrWtuwECzhf5cAnzFwMXCqZSNIEcCv7UVpRZ2yIZNaJE/dwNn2MLUNztlI0gV/8iyb5bAtKhDxrrq2B/JJLM0JlFfFji9LFNWgkgwJHG2BPh44Jgs0XHcIRNddODPHuAx4OdBfqr1iU4VXKHMBKkNnSwDmzybhHI55uyQcrz02pz9x6U/u+oTjef0vRDFlSDmYYpc1WCBIHkSofnmjzmSBdJUgpgHy7cO6Zs/5kgWSFMJYh4s3zqkb/6YI1kgTSWIebB865C++WOOZIE0lSDmwfKtQ/rmjzmSBdJUgpgHy7cO6Zs/5kgWSFMJYh4s3zqkb/6YI1kgTSWIebB865C++WOOZIE0lSDmwfKtQ/rmjzmSBdJUgpgHy7cO6Zs/5kgWSFMJYh4s3zqkb/6YI1kgTSWIebB865C++WOOZIE0lSDmwfKtQ/rmjzmSBdJUgpgHy7cO6Zs/5kgWSFMJYh4s3zqkb/6YI1kgTSWIebB865C++WOOZIE0lSDmwfKtQ/rmjzmSBdJUgpgHy7cO6Zs/5kgWSFMJYh4s3zqkb/6YI1kgTSWIebB865C++WOOZIE0lSDmwfKtQ/rmjzmSBdJUgpgHy7cO6Zs/5kgWSFMJYh6so4BVtepzHoL2OWYG1i+JZENfCVxoVrqhVi5/1i6CwRdCdm8F3pvDn1FZVAmSLqw7ga5qkanXw6QzzQysWQhDm0O6fwvcYFY6ViuTP4NrYa2MP2GRJHq35/Rn1BVXgqQLqSRqG+5anedAz7JkA/1PwIZzI3py8cK9yaWbamTyZ9ftsPWaiF0ZkVKk487peUGKK0HSBerzwAdqi0z7Mkxc1NzIutNgXzRl9hHA6nTVR7RT+zO0FdZEr3p4Gjgupy+jsrgSJF1YhQr31xeRm6rkxqp66bsHtn4ChqK3ZqwALkpXdUNtGYUku3pI4vzZtQK2StruqFzd6O4UC/4V3oQSJH0IlwOX1RfrOBHGLYDxx8Lgeuh/DHq/19C4ZEWXR/ve9FU3LCFkuyCHP7Lw8PuWfBl1ZpQg2UIqnUrm7FlkCXBnloJNyhzIYe8E4Cc5yo/qokqQ7OGVqVbC00fEuCzryvKubZHnByGdPNekkZHyJ40PXusqQfKFR+7J/ULt0m+MuesBmef356susfSlwI3AuARNV/4kOuy7ghIkf4Tk5tyFwPzgFl35t1ws8wTwePDzB/mrMbYgfrzBI3+MHfdRUQniY1TUJ28QUIJ4Ewp1xEcElCA+RkV98gYBJYg3oVBHfERACeJjVNQnbxBQgngTCnXERwSUID5GRX3yBgEliDehUEd8REAJ4mNU1CdvEFCCeBMKdcRHBJQgPkZFffIGASWIN6FQR3xEQAniY1TUJ28QUIJ4Ewp1xEcElCA+RkV98gYBJYg3oVBHfERACeJjVNQnbxBQgngTCnXERwSUID5GRX3yBgEliDehUEd8ROD/AaZVXzLS/jqlAAAAAElFTkSuQmCC" parent="1" vertex="1">
          <mxGeometry x="90" y="205" width="40" height="40" as="geometry" />
        </mxCell>
        <mxCell id="yd2iljssM0_-3lc8b-zZ-20" style="rounded=0;orthogonalLoop=1;jettySize=auto;html=1;exitX=1;exitY=0.5;exitDx=0;exitDy=0;entryX=0;entryY=0.5;entryDx=0;entryDy=0;endArrow=none;endFill=0;" edge="1" parent="1" source="2WpL6Ux3U9TwYnVOZWAu-5" target="yd2iljssM0_-3lc8b-zZ-5">
          <mxGeometry relative="1" as="geometry" />
        </mxCell>
        <mxCell id="yd2iljssM0_-3lc8b-zZ-21" style="rounded=0;orthogonalLoop=1;jettySize=auto;html=1;exitX=1;exitY=1;exitDx=0;exitDy=0;entryX=0;entryY=0;entryDx=0;entryDy=0;endArrow=none;endFill=0;" edge="1" parent="1" source="2WpL6Ux3U9TwYnVOZWAu-5" target="yd2iljssM0_-3lc8b-zZ-7">
          <mxGeometry relative="1" as="geometry" />
        </mxCell>
        <mxCell id="2WpL6Ux3U9TwYnVOZWAu-5" value="" style="ellipse;whiteSpace=wrap;html=1;aspect=fixed;fillColor=#CCCCCC;" parent="1" vertex="1">
          <mxGeometry x="190" y="130" width="10" height="10" as="geometry" />
        </mxCell>
        <mxCell id="2WpL6Ux3U9TwYnVOZWAu-6" value="不同粒度下的函数调用图" style="text;html=1;align=center;verticalAlign=middle;whiteSpace=wrap;rounded=0;" parent="1" vertex="1">
          <mxGeometry x="183" y="80" width="90" height="30" as="geometry" />
        </mxCell>
        <mxCell id="yd2iljssM0_-3lc8b-zZ-2" value="&lt;font style=&quot;font-size: 15px;&quot;&gt;$$G_{class}$$&lt;/font&gt;" style="text;html=1;align=center;verticalAlign=middle;whiteSpace=wrap;rounded=0;" vertex="1" parent="1">
          <mxGeometry x="228" y="137.5" width="60" height="30" as="geometry" />
        </mxCell>
        <mxCell id="yd2iljssM0_-3lc8b-zZ-3" value="&lt;font style=&quot;font-size: 15px;&quot;&gt;$$G_{pkg}$$&lt;/font&gt;" style="text;html=1;align=center;verticalAlign=middle;whiteSpace=wrap;rounded=0;" vertex="1" parent="1">
          <mxGeometry x="223" y="210" width="60" height="30" as="geometry" />
        </mxCell>
        <mxCell id="yd2iljssM0_-3lc8b-zZ-4" value="&lt;font style=&quot;font-size: 15px;&quot;&gt;$$G_{family}$$&lt;/font&gt;" style="text;html=1;align=center;verticalAlign=middle;whiteSpace=wrap;rounded=0;" vertex="1" parent="1">
          <mxGeometry x="218" y="285" width="60" height="30" as="geometry" />
        </mxCell>
        <mxCell id="yd2iljssM0_-3lc8b-zZ-5" value="" style="ellipse;whiteSpace=wrap;html=1;aspect=fixed;fillColor=#CCCCCC;" vertex="1" parent="1">
          <mxGeometry x="203" y="128" width="10" height="10" as="geometry" />
        </mxCell>
        <mxCell id="yd2iljssM0_-3lc8b-zZ-32" style="rounded=0;orthogonalLoop=1;jettySize=auto;html=1;exitX=1;exitY=1;exitDx=0;exitDy=0;entryX=0;entryY=0;entryDx=0;entryDy=0;endArrow=none;endFill=0;" edge="1" parent="1" source="yd2iljssM0_-3lc8b-zZ-6" target="yd2iljssM0_-3lc8b-zZ-12">
          <mxGeometry relative="1" as="geometry" />
        </mxCell>
        <mxCell id="yd2iljssM0_-3lc8b-zZ-6" value="" style="ellipse;whiteSpace=wrap;html=1;aspect=fixed;fillColor=#CCCCCC;" vertex="1" parent="1">
          <mxGeometry x="213" y="138" width="10" height="10" as="geometry" />
        </mxCell>
        <mxCell id="yd2iljssM0_-3lc8b-zZ-29" style="rounded=0;orthogonalLoop=1;jettySize=auto;html=1;exitX=1;exitY=0.5;exitDx=0;exitDy=0;entryX=0;entryY=0.5;entryDx=0;entryDy=0;endArrow=none;endFill=0;" edge="1" parent="1" source="yd2iljssM0_-3lc8b-zZ-7" target="yd2iljssM0_-3lc8b-zZ-6">
          <mxGeometry relative="1" as="geometry" />
        </mxCell>
        <mxCell id="yd2iljssM0_-3lc8b-zZ-30" style="rounded=0;orthogonalLoop=1;jettySize=auto;html=1;exitX=1;exitY=1;exitDx=0;exitDy=0;entryX=0;entryY=0;entryDx=0;entryDy=0;endArrow=none;endFill=0;" edge="1" parent="1" source="yd2iljssM0_-3lc8b-zZ-7" target="yd2iljssM0_-3lc8b-zZ-8">
          <mxGeometry relative="1" as="geometry" />
        </mxCell>
        <mxCell id="yd2iljssM0_-3lc8b-zZ-7" value="" style="ellipse;whiteSpace=wrap;html=1;aspect=fixed;fillColor=#CCCCCC;" vertex="1" parent="1">
          <mxGeometry x="200" y="140" width="10" height="10" as="geometry" />
        </mxCell>
        <mxCell id="yd2iljssM0_-3lc8b-zZ-31" style="rounded=0;orthogonalLoop=1;jettySize=auto;html=1;exitX=1;exitY=1;exitDx=0;exitDy=0;entryX=0;entryY=0;entryDx=0;entryDy=0;endArrow=none;endFill=0;" edge="1" parent="1" source="yd2iljssM0_-3lc8b-zZ-8" target="yd2iljssM0_-3lc8b-zZ-17">
          <mxGeometry relative="1" as="geometry" />
        </mxCell>
        <mxCell id="yd2iljssM0_-3lc8b-zZ-8" value="" style="ellipse;whiteSpace=wrap;html=1;aspect=fixed;fillColor=#CCCCCC;" vertex="1" parent="1">
          <mxGeometry x="210" y="150" width="10" height="10" as="geometry" />
        </mxCell>
        <mxCell id="yd2iljssM0_-3lc8b-zZ-9" value="" style="ellipse;whiteSpace=wrap;html=1;aspect=fixed;fillColor=#CCCCCC;" vertex="1" parent="1">
          <mxGeometry x="187" y="142" width="10" height="10" as="geometry" />
        </mxCell>
        <mxCell id="yd2iljssM0_-3lc8b-zZ-28" style="rounded=0;orthogonalLoop=1;jettySize=auto;html=1;exitX=1;exitY=0.5;exitDx=0;exitDy=0;entryX=0;entryY=0.5;entryDx=0;entryDy=0;endArrow=none;endFill=0;" edge="1" parent="1" source="yd2iljssM0_-3lc8b-zZ-10" target="yd2iljssM0_-3lc8b-zZ-8">
          <mxGeometry relative="1" as="geometry" />
        </mxCell>
        <mxCell id="yd2iljssM0_-3lc8b-zZ-10" value="" style="ellipse;whiteSpace=wrap;html=1;aspect=fixed;fillColor=#CCCCCC;" vertex="1" parent="1">
          <mxGeometry x="197" y="152" width="10" height="10" as="geometry" />
        </mxCell>
        <mxCell id="yd2iljssM0_-3lc8b-zZ-11" value="" style="ellipse;whiteSpace=wrap;html=1;aspect=fixed;fillColor=#CCCCCC;" vertex="1" parent="1">
          <mxGeometry x="206" y="161" width="10" height="10" as="geometry" />
        </mxCell>
        <mxCell id="yd2iljssM0_-3lc8b-zZ-12" value="" style="ellipse;whiteSpace=wrap;html=1;aspect=fixed;fillColor=#CCCCCC;" vertex="1" parent="1">
          <mxGeometry x="223" y="148" width="10" height="10" as="geometry" />
        </mxCell>
        <mxCell id="yd2iljssM0_-3lc8b-zZ-25" style="rounded=0;orthogonalLoop=1;jettySize=auto;html=1;exitX=1;exitY=0.5;exitDx=0;exitDy=0;entryX=0;entryY=0.5;entryDx=0;entryDy=0;endArrow=none;endFill=0;" edge="1" parent="1" source="yd2iljssM0_-3lc8b-zZ-13" target="yd2iljssM0_-3lc8b-zZ-10">
          <mxGeometry relative="1" as="geometry" />
        </mxCell>
        <mxCell id="yd2iljssM0_-3lc8b-zZ-26" style="rounded=0;orthogonalLoop=1;jettySize=auto;html=1;exitX=1;exitY=1;exitDx=0;exitDy=0;entryX=0;entryY=0;entryDx=0;entryDy=0;endArrow=none;endFill=0;" edge="1" parent="1" source="yd2iljssM0_-3lc8b-zZ-13" target="yd2iljssM0_-3lc8b-zZ-16">
          <mxGeometry relative="1" as="geometry" />
        </mxCell>
        <mxCell id="yd2iljssM0_-3lc8b-zZ-13" value="" style="ellipse;whiteSpace=wrap;html=1;aspect=fixed;fillColor=#CCCCCC;" vertex="1" parent="1">
          <mxGeometry x="185" y="154" width="10" height="10" as="geometry" />
        </mxCell>
        <mxCell id="yd2iljssM0_-3lc8b-zZ-18" style="rounded=0;orthogonalLoop=1;jettySize=auto;html=1;exitX=1;exitY=0;exitDx=0;exitDy=0;entryX=0;entryY=0.5;entryDx=0;entryDy=0;endArrow=none;endFill=0;" edge="1" parent="1" source="yd2iljssM0_-3lc8b-zZ-14" target="2WpL6Ux3U9TwYnVOZWAu-5">
          <mxGeometry relative="1" as="geometry" />
        </mxCell>
        <mxCell id="yd2iljssM0_-3lc8b-zZ-19" style="rounded=0;orthogonalLoop=1;jettySize=auto;html=1;exitX=1;exitY=1;exitDx=0;exitDy=0;entryX=0;entryY=0;entryDx=0;entryDy=0;endArrow=none;endFill=0;" edge="1" parent="1" source="yd2iljssM0_-3lc8b-zZ-14" target="yd2iljssM0_-3lc8b-zZ-9">
          <mxGeometry relative="1" as="geometry" />
        </mxCell>
        <mxCell id="yd2iljssM0_-3lc8b-zZ-22" style="rounded=0;orthogonalLoop=1;jettySize=auto;html=1;exitX=0.5;exitY=1;exitDx=0;exitDy=0;entryX=0.5;entryY=0;entryDx=0;entryDy=0;endArrow=none;endFill=0;" edge="1" parent="1" source="yd2iljssM0_-3lc8b-zZ-14" target="yd2iljssM0_-3lc8b-zZ-15">
          <mxGeometry relative="1" as="geometry" />
        </mxCell>
        <mxCell id="yd2iljssM0_-3lc8b-zZ-14" value="" style="ellipse;whiteSpace=wrap;html=1;aspect=fixed;fillColor=#CCCCCC;" vertex="1" parent="1">
          <mxGeometry x="178" y="133" width="10" height="10" as="geometry" />
        </mxCell>
        <mxCell id="yd2iljssM0_-3lc8b-zZ-23" style="rounded=0;orthogonalLoop=1;jettySize=auto;html=1;exitX=1;exitY=1;exitDx=0;exitDy=0;entryX=0;entryY=0;entryDx=0;entryDy=0;endArrow=none;endFill=0;" edge="1" parent="1" source="yd2iljssM0_-3lc8b-zZ-15" target="yd2iljssM0_-3lc8b-zZ-13">
          <mxGeometry relative="1" as="geometry" />
        </mxCell>
        <mxCell id="yd2iljssM0_-3lc8b-zZ-15" value="" style="ellipse;whiteSpace=wrap;html=1;aspect=fixed;fillColor=#CCCCCC;" vertex="1" parent="1">
          <mxGeometry x="175" y="146" width="10" height="10" as="geometry" />
        </mxCell>
        <mxCell id="yd2iljssM0_-3lc8b-zZ-27" style="rounded=0;orthogonalLoop=1;jettySize=auto;html=1;exitX=1;exitY=0.5;exitDx=0;exitDy=0;entryX=0;entryY=0.5;entryDx=0;entryDy=0;endArrow=none;endFill=0;" edge="1" parent="1" source="yd2iljssM0_-3lc8b-zZ-16" target="yd2iljssM0_-3lc8b-zZ-11">
          <mxGeometry relative="1" as="geometry" />
        </mxCell>
        <mxCell id="yd2iljssM0_-3lc8b-zZ-16" value="" style="ellipse;whiteSpace=wrap;html=1;aspect=fixed;fillColor=#CCCCCC;" vertex="1" parent="1">
          <mxGeometry x="193" y="164" width="10" height="10" as="geometry" />
        </mxCell>
        <mxCell id="yd2iljssM0_-3lc8b-zZ-17" value="" style="ellipse;whiteSpace=wrap;html=1;aspect=fixed;fillColor=#CCCCCC;" vertex="1" parent="1">
          <mxGeometry x="218" y="159" width="10" height="10" as="geometry" />
        </mxCell>
        <mxCell id="yd2iljssM0_-3lc8b-zZ-43" style="rounded=0;orthogonalLoop=1;jettySize=auto;html=1;exitX=0;exitY=1;exitDx=0;exitDy=0;entryX=1;entryY=0;entryDx=0;entryDy=0;endArrow=none;endFill=0;" edge="1" parent="1" source="yd2iljssM0_-3lc8b-zZ-33" target="yd2iljssM0_-3lc8b-zZ-35">
          <mxGeometry relative="1" as="geometry" />
        </mxCell>
        <mxCell id="yd2iljssM0_-3lc8b-zZ-44" style="rounded=0;orthogonalLoop=1;jettySize=auto;html=1;exitX=1;exitY=1;exitDx=0;exitDy=0;entryX=0.5;entryY=0;entryDx=0;entryDy=0;endArrow=none;endFill=0;" edge="1" parent="1" source="yd2iljssM0_-3lc8b-zZ-33" target="yd2iljssM0_-3lc8b-zZ-36">
          <mxGeometry relative="1" as="geometry" />
        </mxCell>
        <mxCell id="yd2iljssM0_-3lc8b-zZ-33" value="" style="ellipse;whiteSpace=wrap;html=1;aspect=fixed;fillColor=#666666;" vertex="1" parent="1">
          <mxGeometry x="189" y="205.5" width="10" height="10" as="geometry" />
        </mxCell>
        <mxCell id="yd2iljssM0_-3lc8b-zZ-34" value="" style="ellipse;whiteSpace=wrap;html=1;aspect=fixed;fillColor=#666666;" vertex="1" parent="1">
          <mxGeometry x="208" y="210" width="10" height="10" as="geometry" />
        </mxCell>
        <mxCell id="yd2iljssM0_-3lc8b-zZ-48" style="rounded=0;orthogonalLoop=1;jettySize=auto;html=1;exitX=0.5;exitY=1;exitDx=0;exitDy=0;entryX=0;entryY=0;entryDx=0;entryDy=0;endArrow=none;endFill=0;" edge="1" parent="1" source="yd2iljssM0_-3lc8b-zZ-35" target="yd2iljssM0_-3lc8b-zZ-37">
          <mxGeometry relative="1" as="geometry" />
        </mxCell>
        <mxCell id="yd2iljssM0_-3lc8b-zZ-35" value="" style="ellipse;whiteSpace=wrap;html=1;aspect=fixed;fillColor=#666666;" vertex="1" parent="1">
          <mxGeometry x="179" y="220" width="10" height="10" as="geometry" />
        </mxCell>
        <mxCell id="yd2iljssM0_-3lc8b-zZ-46" style="rounded=0;orthogonalLoop=1;jettySize=auto;html=1;exitX=1;exitY=0;exitDx=0;exitDy=0;entryX=0;entryY=1;entryDx=0;entryDy=0;endArrow=none;endFill=0;" edge="1" parent="1" source="yd2iljssM0_-3lc8b-zZ-36" target="yd2iljssM0_-3lc8b-zZ-34">
          <mxGeometry relative="1" as="geometry" />
        </mxCell>
        <mxCell id="yd2iljssM0_-3lc8b-zZ-47" style="rounded=0;orthogonalLoop=1;jettySize=auto;html=1;exitX=1;exitY=0.5;exitDx=0;exitDy=0;entryX=0;entryY=0.5;entryDx=0;entryDy=0;endArrow=none;endFill=0;" edge="1" parent="1" source="yd2iljssM0_-3lc8b-zZ-36" target="yd2iljssM0_-3lc8b-zZ-38">
          <mxGeometry relative="1" as="geometry" />
        </mxCell>
        <mxCell id="yd2iljssM0_-3lc8b-zZ-50" style="rounded=0;orthogonalLoop=1;jettySize=auto;html=1;exitX=1;exitY=1;exitDx=0;exitDy=0;entryX=0;entryY=0;entryDx=0;entryDy=0;endArrow=none;endFill=0;" edge="1" parent="1" source="yd2iljssM0_-3lc8b-zZ-36" target="yd2iljssM0_-3lc8b-zZ-39">
          <mxGeometry relative="1" as="geometry" />
        </mxCell>
        <mxCell id="yd2iljssM0_-3lc8b-zZ-36" value="" style="ellipse;whiteSpace=wrap;html=1;aspect=fixed;fillColor=#666666;" vertex="1" parent="1">
          <mxGeometry x="197" y="222.5" width="10" height="10" as="geometry" />
        </mxCell>
        <mxCell id="yd2iljssM0_-3lc8b-zZ-49" style="rounded=0;orthogonalLoop=1;jettySize=auto;html=1;exitX=1;exitY=0.5;exitDx=0;exitDy=0;entryX=0;entryY=0.5;entryDx=0;entryDy=0;endArrow=none;endFill=0;" edge="1" parent="1" source="yd2iljssM0_-3lc8b-zZ-37" target="yd2iljssM0_-3lc8b-zZ-39">
          <mxGeometry relative="1" as="geometry" />
        </mxCell>
        <mxCell id="yd2iljssM0_-3lc8b-zZ-37" value="" style="ellipse;whiteSpace=wrap;html=1;aspect=fixed;fillColor=#666666;" vertex="1" parent="1">
          <mxGeometry x="188" y="238" width="10" height="10" as="geometry" />
        </mxCell>
        <mxCell id="yd2iljssM0_-3lc8b-zZ-38" value="" style="ellipse;whiteSpace=wrap;html=1;aspect=fixed;fillColor=#666666;" vertex="1" parent="1">
          <mxGeometry x="216" y="225" width="10" height="10" as="geometry" />
        </mxCell>
        <mxCell id="yd2iljssM0_-3lc8b-zZ-39" value="" style="ellipse;whiteSpace=wrap;html=1;aspect=fixed;fillColor=#666666;" vertex="1" parent="1">
          <mxGeometry x="206" y="238" width="10" height="10" as="geometry" />
        </mxCell>
        <mxCell id="yd2iljssM0_-3lc8b-zZ-51" style="rounded=0;orthogonalLoop=1;jettySize=auto;html=1;exitX=0.5;exitY=1;exitDx=0;exitDy=0;entryX=0.5;entryY=0;entryDx=0;entryDy=0;endArrow=none;endFill=0;" edge="1" parent="1" source="yd2iljssM0_-3lc8b-zZ-40" target="yd2iljssM0_-3lc8b-zZ-42">
          <mxGeometry relative="1" as="geometry" />
        </mxCell>
        <mxCell id="yd2iljssM0_-3lc8b-zZ-52" style="rounded=0;orthogonalLoop=1;jettySize=auto;html=1;exitX=1;exitY=0.5;exitDx=0;exitDy=0;entryX=0;entryY=0;entryDx=0;entryDy=0;endArrow=none;endFill=0;" edge="1" parent="1" source="yd2iljssM0_-3lc8b-zZ-40" target="yd2iljssM0_-3lc8b-zZ-41">
          <mxGeometry relative="1" as="geometry" />
        </mxCell>
        <mxCell id="yd2iljssM0_-3lc8b-zZ-40" value="" style="ellipse;whiteSpace=wrap;html=1;aspect=fixed;fillColor=#1A1A1A;" vertex="1" parent="1">
          <mxGeometry x="185" y="285" width="10" height="10" as="geometry" />
        </mxCell>
        <mxCell id="yd2iljssM0_-3lc8b-zZ-41" value="" style="ellipse;whiteSpace=wrap;html=1;aspect=fixed;fillColor=#1A1A1A;" vertex="1" parent="1">
          <mxGeometry x="206" y="295" width="10" height="10" as="geometry" />
        </mxCell>
        <mxCell id="yd2iljssM0_-3lc8b-zZ-42" value="" style="ellipse;whiteSpace=wrap;html=1;aspect=fixed;fillColor=#1A1A1A;" vertex="1" parent="1">
          <mxGeometry x="185" y="305" width="10" height="10" as="geometry" />
        </mxCell>
        <mxCell id="yd2iljssM0_-3lc8b-zZ-58" value="" style="rounded=1;whiteSpace=wrap;html=1;" vertex="1" parent="1">
          <mxGeometry x="294" y="120" width="26" height="60" as="geometry" />
        </mxCell>
        <mxCell id="yd2iljssM0_-3lc8b-zZ-59" value="" style="rounded=1;whiteSpace=wrap;html=1;" vertex="1" parent="1">
          <mxGeometry x="294" y="195" width="26" height="60" as="geometry" />
        </mxCell>
        <mxCell id="yd2iljssM0_-3lc8b-zZ-60" value="" style="rounded=1;whiteSpace=wrap;html=1;" vertex="1" parent="1">
          <mxGeometry x="294" y="270" width="26" height="60" as="geometry" />
        </mxCell>
      </root>
    </mxGraphModel>
  </diagram>
</mxfile>
